<mxfile host="app.diagrams.net" modified="2023-09-08T16:45:13.331Z" agent="Mozilla/5.0 (Windows NT 10.0; Win64; x64) AppleWebKit/537.36 (KHTML, like Gecko) Chrome/116.0.0.0 Safari/537.36" etag="tc7dwqEC3ZdejnjLijSR" version="21.7.0" type="device">
  <diagram name="Sayfa -1" id="wNSfhcQFicZCvX2C_1Jo">
    <mxGraphModel dx="1906" dy="878" grid="1" gridSize="10" guides="1" tooltips="1" connect="1" arrows="1" fold="1" page="1" pageScale="1" pageWidth="827" pageHeight="1169" math="0" shadow="0">
      <root>
        <mxCell id="0" />
        <mxCell id="1" parent="0" />
        <mxCell id="2ma4KXL30fxbFjhFvLQv-3" value="" style="edgeStyle=orthogonalEdgeStyle;rounded=0;orthogonalLoop=1;jettySize=auto;html=1;" edge="1" parent="1" source="2ma4KXL30fxbFjhFvLQv-1">
          <mxGeometry relative="1" as="geometry">
            <mxPoint x="180" y="175" as="targetPoint" />
          </mxGeometry>
        </mxCell>
        <mxCell id="2ma4KXL30fxbFjhFvLQv-1" value="start" style="strokeWidth=2;html=1;shape=mxgraph.flowchart.start_1;whiteSpace=wrap;" vertex="1" parent="1">
          <mxGeometry x="130" y="65" width="100" height="60" as="geometry" />
        </mxCell>
        <mxCell id="2ma4KXL30fxbFjhFvLQv-8" value="" style="edgeStyle=orthogonalEdgeStyle;rounded=0;orthogonalLoop=1;jettySize=auto;html=1;" edge="1" parent="1" source="2ma4KXL30fxbFjhFvLQv-6" target="2ma4KXL30fxbFjhFvLQv-7">
          <mxGeometry relative="1" as="geometry" />
        </mxCell>
        <mxCell id="2ma4KXL30fxbFjhFvLQv-6" value="let horoscope" style="rounded=0;whiteSpace=wrap;html=1;" vertex="1" parent="1">
          <mxGeometry x="120" y="175" width="120" height="60" as="geometry" />
        </mxCell>
        <mxCell id="2ma4KXL30fxbFjhFvLQv-13" value="" style="edgeStyle=orthogonalEdgeStyle;rounded=0;orthogonalLoop=1;jettySize=auto;html=1;" edge="1" parent="1" source="2ma4KXL30fxbFjhFvLQv-7" target="2ma4KXL30fxbFjhFvLQv-11">
          <mxGeometry relative="1" as="geometry" />
        </mxCell>
        <mxCell id="2ma4KXL30fxbFjhFvLQv-7" value="dogdugunz gun" style="shape=parallelogram;perimeter=parallelogramPerimeter;whiteSpace=wrap;html=1;fixedSize=1;rounded=0;" vertex="1" parent="1">
          <mxGeometry x="120" y="315" width="120" height="60" as="geometry" />
        </mxCell>
        <mxCell id="2ma4KXL30fxbFjhFvLQv-15" value="" style="edgeStyle=orthogonalEdgeStyle;rounded=0;orthogonalLoop=1;jettySize=auto;html=1;" edge="1" parent="1" source="2ma4KXL30fxbFjhFvLQv-11" target="2ma4KXL30fxbFjhFvLQv-14">
          <mxGeometry relative="1" as="geometry" />
        </mxCell>
        <mxCell id="2ma4KXL30fxbFjhFvLQv-11" value="dogdugunuz ay" style="shape=parallelogram;perimeter=parallelogramPerimeter;whiteSpace=wrap;html=1;fixedSize=1;rounded=0;" vertex="1" parent="1">
          <mxGeometry x="120" y="440" width="120" height="60" as="geometry" />
        </mxCell>
        <mxCell id="2ma4KXL30fxbFjhFvLQv-17" value="" style="edgeStyle=orthogonalEdgeStyle;rounded=0;orthogonalLoop=1;jettySize=auto;html=1;" edge="1" parent="1" source="2ma4KXL30fxbFjhFvLQv-14" target="2ma4KXL30fxbFjhFvLQv-16">
          <mxGeometry relative="1" as="geometry" />
        </mxCell>
        <mxCell id="2ma4KXL30fxbFjhFvLQv-14" value="&#xa;&lt;div style=&quot;color: rgb(204, 204, 204); background-color: rgb(31, 31, 31); font-family: Consolas, &amp;quot;Courier New&amp;quot;, monospace; font-weight: normal; font-size: 14px; line-height: 19px;&quot;&gt;&lt;div&gt;&lt;span style=&quot;color: #9cdcfe;&quot;&gt;dogdugunuzGun&lt;/span&gt;&lt;span style=&quot;color: #cccccc;&quot;&gt; &lt;/span&gt;&lt;span style=&quot;color: #d4d4d4;&quot;&gt;&amp;gt;=&lt;/span&gt;&lt;span style=&quot;color: #cccccc;&quot;&gt; &lt;/span&gt;&lt;span style=&quot;color: #b5cea8;&quot;&gt;21&lt;/span&gt;&lt;span style=&quot;color: #cccccc;&quot;&gt; &lt;/span&gt;&lt;span style=&quot;color: #d4d4d4;&quot;&gt;&amp;amp;&amp;amp;&lt;/span&gt;&lt;span style=&quot;color: #cccccc;&quot;&gt; &lt;/span&gt;&lt;span style=&quot;color: #9cdcfe;&quot;&gt;dogdugunuzAy&lt;/span&gt;&lt;/div&gt;&lt;/div&gt;&#xa;&#xa;" style="rhombus;whiteSpace=wrap;html=1;rounded=0;" vertex="1" parent="1">
          <mxGeometry x="40" y="580" width="280" height="150" as="geometry" />
        </mxCell>
        <mxCell id="2ma4KXL30fxbFjhFvLQv-16" value="horoscop" style="shape=document;whiteSpace=wrap;html=1;boundedLbl=1;rounded=0;" vertex="1" parent="1">
          <mxGeometry x="120" y="845" width="120" height="80" as="geometry" />
        </mxCell>
        <mxCell id="2ma4KXL30fxbFjhFvLQv-18" value="" style="edgeStyle=elbowEdgeStyle;elbow=horizontal;endArrow=classic;html=1;curved=0;rounded=0;endSize=8;startSize=8;exitX=0;exitY=0.5;exitDx=0;exitDy=0;entryX=0;entryY=0.5;entryDx=0;entryDy=0;" edge="1" parent="1" source="2ma4KXL30fxbFjhFvLQv-16" target="2ma4KXL30fxbFjhFvLQv-7">
          <mxGeometry width="50" height="50" relative="1" as="geometry">
            <mxPoint x="-160" y="865" as="sourcePoint" />
            <mxPoint x="-30" y="480" as="targetPoint" />
            <Array as="points">
              <mxPoint y="600" />
            </Array>
          </mxGeometry>
        </mxCell>
        <mxCell id="2ma4KXL30fxbFjhFvLQv-19" value="end" style="ellipse;whiteSpace=wrap;html=1;" vertex="1" parent="1">
          <mxGeometry x="380" y="830" width="120" height="80" as="geometry" />
        </mxCell>
        <mxCell id="2ma4KXL30fxbFjhFvLQv-20" value="" style="edgeStyle=segmentEdgeStyle;endArrow=classic;html=1;curved=0;rounded=0;endSize=8;startSize=8;exitX=1.042;exitY=0.35;exitDx=0;exitDy=0;exitPerimeter=0;" edge="1" parent="1" source="2ma4KXL30fxbFjhFvLQv-16" target="2ma4KXL30fxbFjhFvLQv-19">
          <mxGeometry width="50" height="50" relative="1" as="geometry">
            <mxPoint x="320" y="550" as="sourcePoint" />
            <mxPoint x="370" y="550" as="targetPoint" />
            <Array as="points">
              <mxPoint x="320" y="873" />
              <mxPoint x="320" y="870" />
            </Array>
          </mxGeometry>
        </mxCell>
      </root>
    </mxGraphModel>
  </diagram>
</mxfile>
